<?xml version="1.0" standalone="no"?>
<!DOCTYPE svg PUBLIC "-//W3C//DTD SVG 1.1//EN" "http://www.w3.org/Graphics/SVG/1.1/DTD/svg11.dtd" >
<svg xmlns="http://www.w3.org/2000/svg">
<metadata></metadata>
<defs>
<font id="bentonsansbook" horiz-adv-x="1519" >
<font-face units-per-em="2048" ascent="1638" descent="-410" />
<missing-glyph horiz-adv-x="462" />
<glyph horiz-adv-x="2048" />
<glyph horiz-adv-x="2048" />
<glyph unicode="&#xd;" horiz-adv-x="2048" />
<glyph unicode=" "  horiz-adv-x="462" />
<glyph unicode="&#x09;" horiz-adv-x="462" />
<glyph unicode="&#xa0;" horiz-adv-x="462" />
<glyph unicode="!" horiz-adv-x="641" d="M233 0v190h179v-190h-179zM233 1516h177l-45 -1102h-84z" />
<glyph unicode="&#x22;" horiz-adv-x="829" d="M168 1403v113h141v-113l-35 -402h-71zM518 1403v113h144v-113l-35 -402h-74z" />
<glyph unicode="#" horiz-adv-x="1449" d="M90 444v117h262l82 393h-256v117h281l94 445h131l-92 -445h391l94 445h131l-94 -445h246v-117h-268l-84 -393h264v-117h-287l-94 -444h-131l92 444h-391l-94 -444h-131l92 444h-238zM483 561h394l81 393h-391z" />
<glyph unicode="$" horiz-adv-x="1325" d="M121 279l108 71q72 -110 160.5 -169.5t218.5 -69.5v624q-67 21 -115.5 38.5t-103.5 43.5t-91.5 56t-68.5 69.5t-47.5 91t-15.5 113.5q0 157 117.5 264.5t320.5 116.5v149h113v-151q275 -28 413 -256l-108 -78q-64 100 -130.5 149.5t-178.5 59.5v-559q63 -18 104.5 -32 t97 -37t92 -45.5t75.5 -56.5t61.5 -72.5t37.5 -90.5t15 -113q0 -173 -128 -282.5t-351 -122.5v-180h-113v182q-78 5 -147.5 25.5t-120.5 49t-94.5 66t-71.5 73t-49 73.5zM305 1157q0 -60 22.5 -106.5t67.5 -79.5t93.5 -55t119.5 -44v533q-150 -7 -226.5 -76t-76.5 -172z M713 113q73 4 132.5 20t108 47t75 83t26.5 122q0 57 -18.5 103t-47.5 77.5t-76.5 58.5t-91.5 44.5t-108 36.5v-592z" />
<glyph unicode="%" horiz-adv-x="1986" d="M127 1077q0 211 92.5 336t249.5 125q156 0 247 -123t91 -330q0 -204 -91 -331t-249 -127q-161 0 -250.5 123t-89.5 327zM256 1085q0 -158 56 -251t157 -93q98 0 153.5 95t55.5 245q0 156 -55.5 249t-155.5 93t-155.5 -95t-55.5 -243zM475 0l905 1516h131l-905 -1516h-131 zM1180 430q0 211 92.5 335t249.5 124q156 0 247 -122.5t91 -330.5q0 -202 -91 -329t-249 -127q-161 0 -250.5 123t-89.5 327zM1309 436q0 -157 55 -250.5t156 -93.5q99 0 154 95.5t55 246.5q0 157 -54.5 249.5t-154.5 92.5q-101 0 -156 -94.5t-55 -245.5z" />
<glyph unicode="&#x26;" horiz-adv-x="1476" d="M82 375q0 106 50 196t124.5 151t181.5 118q-104 180 -104 348q0 95 37.5 174t119.5 130.5t195 51.5q152 0 235 -82t83 -209q0 -61 -20 -116t-53 -99t-84 -86t-104 -75t-122 -68q51 -76 139 -191q151 -195 262 -303q129 169 160 443h137q-42 -315 -201 -520 q161 -129 307 -129v-129q-114 5 -206.5 41t-192.5 118q-189 -168 -442 -168q-246 0 -374 108.5t-128 295.5zM227 385q0 -139 93 -215t272 -76q202 0 342 125q-120 115 -289 328q-114 144 -149 196q-269 -155 -269 -358zM473 1194q0 -139 90 -295q70 36 119 68t95 74.5 t69.5 93t23.5 108.5q0 78 -46.5 129t-137.5 51q-103 0 -158 -62.5t-55 -166.5z" />
<glyph unicode="'" horiz-adv-x="477" d="M168 1403v113h141v-113l-35 -402h-71z" />
<glyph unicode="(" horiz-adv-x="813" d="M129 559q0 286 127 525t383 454l63 -72q-197 -180 -307 -412t-110 -495q0 -264 111 -496.5t309 -412.5l-66 -70q-256 215 -383 454t-127 525z" />
<glyph unicode=")" horiz-adv-x="813" d="M109 -350q198 181 309.5 413t111.5 496q0 262 -111 494t-308 413l63 72q256 -216 384 -454.5t128 -524.5t-128 -524.5t-384 -454.5z" />
<glyph unicode="*" horiz-adv-x="1040" d="M94 1065v113l377 -27l-215 309l102 62l162 -342l162 342l102 -62l-213 -309l375 27v-113l-375 27l213 -310l-102 -59l-162 340l-162 -340l-102 59l213 310z" />
<glyph unicode="+" horiz-adv-x="1302" d="M135 612v123h453v459h127v-459h454v-123h-454v-458h-127v458h-453z" />
<glyph unicode="," horiz-adv-x="548" d="M186 0v193h176v-175l-92 -225h-65l49 207h-68z" />
<glyph unicode="-" horiz-adv-x="731" d="M135 582v123h461v-123h-461z" />
<glyph unicode="." horiz-adv-x="548" d="M186 0v193h176v-193h-176z" />
<glyph unicode="/" horiz-adv-x="1124" d="M47 0l881 1516h149l-880 -1516h-150z" />
<glyph unicode="0" horiz-adv-x="1337" d="M113 758q0 360 147 573t410 213q175 0 300.5 -98t189 -274.5t63.5 -413.5t-63.5 -413.5t-189 -275t-300.5 -98.5q-263 0 -410 213.5t-147 573.5zM258 758q0 -316 110.5 -488t301.5 -172q194 0 301.5 171t107.5 489q0 316 -110 486.5t-299 170.5q-195 0 -303.5 -169.5 t-108.5 -487.5z" />
<glyph unicode="1" horiz-adv-x="884" d="M123 0v131h285v1227q-56 -30 -136 -50t-145 -20v129q189 6 289 99h135v-1385h258v-131h-686z" />
<glyph unicode="2" horiz-adv-x="1202" d="M98 0v33q0 116 42.5 217t157 218t308.5 241q176 112 248 201.5t72 209.5q0 136 -81.5 215.5t-228.5 79.5q-124 0 -216 -64.5t-160 -197.5l-115 68q81 156 207 239.5t291 83.5q203 0 323.5 -115.5t120.5 -300.5q0 -155 -86 -269.5t-305 -252.5q-201 -128 -305.5 -249 t-112.5 -226h815v-131h-975z" />
<glyph unicode="3" horiz-adv-x="1210" d="M61 254l109 78q156 -234 414 -234q166 0 263 84.5t97 225.5q0 171 -113 252t-374 81h-58v125h70q235 0 338.5 70.5t103.5 214.5q0 121 -78.5 192.5t-242.5 71.5q-212 0 -361 -184l-100 84q191 229 469 229q116 0 205 -31t142.5 -85t80.5 -120.5t27 -142.5 q0 -145 -79.5 -238t-219.5 -120q169 -35 251 -133.5t82 -265.5q0 -190 -138 -313.5t-367 -123.5q-165 0 -300.5 74t-220.5 209z" />
<glyph unicode="4" horiz-adv-x="1241" d="M68 367v108l690 1041h178v-1020h256v-129h-256v-367h-139v367h-729zM231 496h566v850h-4z" />
<glyph unicode="5" horiz-adv-x="1191" d="M80 244l104 84q159 -230 394 -230q94 0 168 33t119 89.5t68 126.5t23 149q0 180 -95.5 278t-250.5 98q-113 0 -197 -48t-149 -142l-108 41l59 793h801l-12 -134h-668l-41 -526q121 141 336 141q208 0 338.5 -135t130.5 -360q0 -232 -141.5 -381.5t-378.5 -149.5 q-160 0 -290.5 74t-209.5 199z" />
<glyph unicode="6" horiz-adv-x="1251" d="M113 731q0 231 75.5 416.5t211.5 291t307 105.5q214 0 362 -114l-76 -111q-64 50 -129 74t-162 24q-135 0 -237.5 -89.5t-156 -241.5t-54.5 -341q187 203 432 203q231 0 352 -129.5t121 -343.5q0 -218 -141 -361t-367 -143q-114 0 -210.5 46.5t-170.5 137.5t-115.5 238.5 t-41.5 337.5zM260 600q22 -253 130 -378.5t267 -125.5q165 0 263 99.5t98 277.5q0 161 -85.5 255.5t-262.5 94.5q-122 0 -230 -61t-180 -162z" />
<glyph unicode="7" horiz-adv-x="1124" d="M102 1382v134h932v-125l-641 -1391h-149l639 1382h-781z" />
<glyph unicode="8" horiz-adv-x="1243" d="M82 367q0 78 26.5 142t81 116.5t124 94.5t169.5 85q-82 37 -139.5 72.5t-102.5 80t-67 99.5t-22 123q0 70 32.5 135.5t91 117t149 82.5t198.5 31q110 0 200.5 -31t148 -82.5t89 -116.5t31.5 -136q0 -128 -81 -210.5t-255 -160.5q104 -46 173.5 -86.5t124.5 -93t81 -117 t26 -145.5t-37 -153t-104 -126.5t-170 -86.5t-227 -32q-249 0 -395 114t-146 284zM225 375q0 -124 112 -203.5t286 -79.5t284.5 77.5t110.5 205.5q0 63 -25.5 114t-80.5 96t-124 82t-174 81q-211 -94 -300 -175t-89 -198zM293 1180q0 -53 19 -95t63.5 -79.5t103 -69.5 t150.5 -72q178 77 249.5 142.5t71.5 167.5q0 101 -84 175t-243 74q-154 0 -242 -72.5t-88 -170.5z" />
<glyph unicode="9" horiz-adv-x="1251" d="M92 1040q0 218 141 361t367 143q114 0 210.5 -46.5t170 -137.5t115 -238.5t41.5 -337.5q0 -231 -75 -416.5t-210.5 -291t-306.5 -105.5q-234 0 -387 135l73 109q74 -60 143.5 -88.5t174.5 -28.5q135 0 237.5 89t155.5 241t53 342q-187 -203 -430 -203q-231 0 -352 129.5 t-121 343.5zM233 1042q0 -161 86 -255.5t263 -94.5q122 0 229.5 61t179.5 162q-22 252 -130.5 377t-268.5 125q-164 0 -261.5 -99t-97.5 -276z" />
<glyph unicode=":" horiz-adv-x="555" d="M188 0v193h179v-193h-179zM188 885v194h179v-194h-179z" />
<glyph unicode=";" horiz-adv-x="555" d="M188 0v193h179v-173l-95 -227h-65l49 207h-68zM188 885v194h179v-194h-179z" />
<glyph unicode="&#x3c;" horiz-adv-x="1302" d="M104 612v103l1084 465v-133l-920 -383l920 -383v-134z" />
<glyph unicode="=" horiz-adv-x="1302" d="M133 371v121h1034v-121h-1034zM133 838v120h1034v-120h-1034z" />
<glyph unicode="&#x3e;" horiz-adv-x="1302" d="M117 147v134l919 383l-919 383v133l1083 -465v-103z" />
<glyph unicode="?" horiz-adv-x="1103" d="M80 1286q93 123 205.5 190.5t271.5 67.5q198 0 319 -102t121 -266q0 -73 -19 -131t-58 -103t-80.5 -76.5t-104.5 -68.5q-44 -26 -73 -47t-50.5 -48t-32.5 -50t-17 -63t-7.5 -76.5t-1.5 -100.5h-117q-4 82 -4 135q0 108 42 180t142 131q70 43 107.5 70t70.5 63.5 t45.5 77.5t12.5 98q0 116 -80.5 182t-222.5 66q-122 0 -209 -53.5t-158 -153.5zM406 0v190h178v-190h-178z" />
<glyph unicode="@" horiz-adv-x="1777" d="M100 758q0 230 102.5 410t282 278t404.5 98q134 0 255.5 -36t218 -104t167.5 -161t109 -212.5t38 -252.5q0 -212 -96 -335.5t-246 -123.5q-96 0 -158 43t-83 113q-162 -149 -342 -149q-138 0 -223 83t-85 244q0 154 54 280.5t153 200.5t223 74q155 0 267 -112l14 94h117 l-88 -602q-12 -80 31.5 -131t130.5 -51q108 0 176.5 94t68.5 276q0 200 -90.5 357t-250.5 243t-361 86q-151 0 -280.5 -52t-221.5 -143.5t-144.5 -223t-52.5 -285.5q0 -205 89 -366.5t248 -251t360 -89.5q220 0 418 109l36 -70q-213 -119 -456 -119q-170 0 -316 57.5 t-249 160t-161.5 249.5t-58.5 320zM567 664q0 -238 203 -238q80 0 149.5 30.5t141.5 100.5l63 428q-52 63 -113 91t-143 28q-131 0 -216 -129t-85 -311z" />
<glyph unicode="A" horiz-adv-x="1378" d="M74 0l536 1522h158l537 -1522h-152l-162 467h-614l-162 -467h-141zM422 596h524l-260 754h-4z" />
<glyph unicode="B" horiz-adv-x="1402" d="M195 0v1516h526q253 0 383.5 -99t130.5 -282q0 -145 -80 -234t-207 -117v-4q151 -28 243.5 -120.5t92.5 -247.5q0 -187 -132 -299.5t-386 -112.5h-571zM338 129h426q377 0 377 289q0 150 -110.5 223.5t-311.5 73.5h-381v-586zM338 842h371q185 0 284 68t99 206 q0 139 -91 203.5t-288 64.5h-375v-542z" />
<glyph unicode="C" horiz-adv-x="1431" d="M121 764q0 228 78 405t222 276t331 99q429 0 548 -463l-139 -34q-53 187 -148 275.5t-263 88.5q-220 0 -352 -175.5t-132 -467.5q0 -312 132 -489t356 -177q332 0 432 385l139 -30q-57 -229 -203.5 -357.5t-369.5 -128.5q-287 0 -459 215.5t-172 577.5z" />
<glyph unicode="D" horiz-adv-x="1452" d="M195 0v1516h383q371 0 562 -191t191 -565q0 -373 -193 -566.5t-560 -193.5h-383zM340 131h260q586 0 586 629q0 620 -590 620h-256v-1249z" />
<glyph unicode="E" horiz-adv-x="1236" d="M195 0v1516h905v-136h-760v-514h567v-131h-567v-602h803v-133h-948z" />
<glyph unicode="F" horiz-adv-x="1157" d="M195 0v1516h886v-136h-741v-522h549v-131h-549v-727h-145z" />
<glyph unicode="G" horiz-adv-x="1480" d="M121 764q0 353 177 566.5t456 213.5q214 0 353 -118.5t198 -346.5l-140 -32q-55 191 -151 277.5t-262 86.5q-100 0 -187 -41t-154 -119t-106 -202t-39 -279q0 -313 134 -490.5t356 -177.5q193 0 307 129t113 357h-367v125h508v-713h-131v231h-4q-58 -114 -165.5 -187 t-273.5 -73q-194 0 -336.5 104t-214 282t-71.5 407z" />
<glyph unicode="H" horiz-adv-x="1499" d="M195 0v1516h145v-650h821v650h146v-1516h-146v733h-821v-733h-145z" />
<glyph unicode="I" horiz-adv-x="575" d="M215 0v1516h145v-1516h-145z" />
<glyph unicode="J" horiz-adv-x="1019" d="M55 180l103 78q53 -78 116 -118t150 -40q270 0 270 308v1108h146v-1110q0 -212 -108 -323.5t-302 -111.5q-240 0 -375 209z" />
<glyph unicode="K" horiz-adv-x="1368" d="M195 0v1516h145v-818l725 818h178l-520 -574l596 -942h-168l-526 829l-285 -311v-518h-145z" />
<glyph unicode="L" horiz-adv-x="1157" d="M195 0v1516h145v-1383h741v-133h-886z" />
<glyph unicode="M" horiz-adv-x="1783" d="M195 0v1516h188l508 -1328h4l504 1328h192v-1516h-145v1270h-4q-23 -77 -94 -266l-394 -1004h-133l-393 1004q-62 164 -94 270h-4v-1274h-135z" />
<glyph unicode="N" horiz-adv-x="1521" d="M195 0v1516h155l836 -1250h4v1250h137v-1516h-129l-862 1288h-4v-1288h-137z" />
<glyph unicode="O" d="M121 758q0 175 48 322.5t132.5 249t202.5 158t256 56.5t256 -56.5t202.5 -158t132.5 -249t48 -322.5q0 -234 -82 -413.5t-227.5 -276.5t-329.5 -97t-329.5 97t-227.5 276.5t-82 413.5zM266 758q0 -304 137.5 -480t356.5 -176t356 176t137 480q0 303 -136.5 478 t-356.5 175t-357 -175t-137 -478z" />
<glyph unicode="P" horiz-adv-x="1316" d="M195 0v1516h503q253 0 392 -104.5t139 -309.5q0 -219 -146.5 -324.5t-398.5 -105.5h-344v-672h-145zM340 801h354q195 0 292 69t97 228q0 150 -97.5 217t-293.5 67h-352v-581z" />
<glyph unicode="Q" d="M121 758q0 175 48.5 322.5t133.5 249t202.5 158t254.5 56.5q136 0 253.5 -56.5t203 -158t134 -249t48.5 -322.5q0 -330 -159.5 -544t-414.5 -239q6 -66 32 -111t72 -70t101.5 -35.5t130.5 -10.5h105v-129h-136q-221 0 -334.5 98t-115.5 260q-250 30 -404.5 242.5 t-154.5 538.5zM266 758q0 -304 137.5 -481t356.5 -177q218 0 354.5 177t136.5 481q0 303 -136.5 478t-354.5 175q-220 0 -357 -175t-137 -478z" />
<glyph unicode="R" horiz-adv-x="1374" d="M195 0v1516h507q254 0 390.5 -105.5t136.5 -304.5q0 -342 -363 -410l383 -696h-164l-370 680h-377v-680h-143zM338 809h354q196 0 293.5 66.5t97.5 224.5q0 152 -97.5 217t-295.5 65h-352v-573z" />
<glyph unicode="S" horiz-adv-x="1329" d="M119 373l129 47q51 -157 162 -238.5t272 -81.5q171 0 273 74t102 201q0 82 -32.5 137t-118.5 103.5t-247 99.5q-106 33 -177 61t-135.5 65.5t-100.5 80.5t-57 101t-21 132q0 165 133 277t338 112q204 0 333.5 -93.5t186.5 -254.5l-123 -57q-56 144 -154 209t-245 65 q-149 0 -237.5 -70.5t-88.5 -177.5q0 -52 14 -90.5t41 -69t80.5 -59t117.5 -53t167 -57.5q125 -40 207.5 -79t145 -91.5t90.5 -121t28 -159.5q0 -187 -148 -300.5t-378 -113.5q-211 0 -356.5 107.5t-200.5 294.5z" />
<glyph unicode="T" horiz-adv-x="1263" d="M70 1380v136h1124v-136h-489v-1380h-146v1380h-489z" />
<glyph unicode="U" horiz-adv-x="1464" d="M180 512v1004h146v-979q0 -95 24 -172.5t72.5 -136.5t127.5 -91.5t183 -32.5q203 0 304.5 115.5t101.5 312.5v984h145v-1000q0 -114 -35 -212t-102.5 -172t-174 -116.5t-241.5 -42.5q-136 0 -242.5 41.5t-173.5 115.5t-101 170.5t-34 211.5z" />
<glyph unicode="V" horiz-adv-x="1349" d="M74 1516h149l453 -1323h4l455 1323h141l-533 -1522h-137z" />
<glyph unicode="W" horiz-adv-x="1894" d="M82 1516h147l236 -920q46 -172 92 -381h4q29 149 88 379l225 922h154l229 -930q67 -263 86 -371h5q13 57 88 365l237 936h139l-401 -1516h-137l-322 1315h-4l-325 -1315h-138z" />
<glyph unicode="X" horiz-adv-x="1345" d="M66 0l528 813l-461 703h168l377 -588l377 588h155l-456 -703l526 -813h-156l-454 698l-455 -698h-149z" />
<glyph unicode="Y" horiz-adv-x="1265" d="M51 1516h158l426 -723l424 723h155l-509 -848v-668h-146v668z" />
<glyph unicode="Z" horiz-adv-x="1275" d="M86 0v104l909 1289h-850v123h1026v-107l-905 -1286h905v-123h-1085z" />
<glyph unicode="[" horiz-adv-x="796" d="M180 -410v1926h520v-109h-376v-1708h376v-109h-520z" />
<glyph unicode="\" horiz-adv-x="1112" d="M41 1516h149l881 -1516h-149z" />
<glyph unicode="]" horiz-adv-x="796" d="M96 -301h377v1706h-377v111h520v-1926h-520v109z" />
<glyph unicode="^" horiz-adv-x="1044" d="M205 1188l264 325h106l265 -325h-90l-230 201l-229 -201h-86z" />
<glyph unicode="_" horiz-adv-x="1024" d="M0 -143h1024v-115h-1024v115z" />
<glyph unicode="`" horiz-adv-x="1024" d="M297 1513h186l195 -319h-92z" />
<glyph unicode="a" horiz-adv-x="1120" d="M98 252q0 83 37.5 149.5t121.5 125t227 103t345 75.5v55q0 221 -219 221q-119 0 -213.5 -44t-189.5 -126l-76 88q105 97 223 149t269 52q346 0 346 -344v-490q0 -194 30 -266h-145q-25 80 -25 154q-190 -172 -426 -172q-144 0 -224.5 71.5t-80.5 198.5zM238 270 q0 -84 52 -128t144 -44q217 0 395 170v336q-169 -29 -286.5 -65t-183 -79t-93.5 -88.5t-28 -101.5z" />
<glyph unicode="b" horiz-adv-x="1214" d="M164 0v1516h141v-594q159 178 361 178q94 0 174 -35t140.5 -102.5t95 -175.5t34.5 -246t-35 -246t-97 -175.5t-144.5 -102.5t-180.5 -35q-186 0 -348 165v-147h-141zM305 276q165 -176 336 -176q150 0 239 109.5t89 329.5q0 214 -92.5 327t-235.5 113q-94 0 -174 -45 t-162 -133v-525z" />
<glyph unicode="c" horiz-adv-x="1087" d="M102 539q0 140 41 250t110 176.5t153.5 100.5t177.5 34q83 0 151.5 -23t117 -66t82.5 -92.5t62 -113.5l-120 -53q-46 113 -116.5 170t-180.5 57q-63 0 -120.5 -23.5t-107 -73t-79 -137.5t-29.5 -204q0 -207 93 -325t238 -118q111 0 181.5 54t128.5 176l114 -49 q-69 -146 -171.5 -224t-258.5 -78q-94 0 -178 38t-148.5 108t-102.5 178t-38 238z" />
<glyph unicode="d" horiz-adv-x="1214" d="M104 539q0 272 127 416.5t330 144.5q99 0 190 -46.5t158 -121.5v584h142v-1250q0 -196 32 -266h-149q-25 77 -25 158q-76 -82 -162 -129t-198 -47q-94 0 -174 34.5t-141 102t-95.5 175t-34.5 245.5zM246 537q0 -213 92 -324t235 -111q95 0 174.5 44.5t161.5 132.5v524 q-164 178 -336 178q-149 0 -238 -112t-89 -332z" />
<glyph unicode="e" horiz-adv-x="1118" d="M102 541q0 138 41.5 248t110.5 176t151 100.5t170 34.5q196 0 318.5 -146.5t122.5 -414.5v-27h-772q1 -193 98 -304.5t242 -111.5q116 0 193.5 48t142.5 149l88 -70q-152 -246 -433 -246q-96 0 -180.5 37t-150 106t-104 178t-38.5 243zM246 625h633q-11 161 -89 258.5 t-217 97.5q-125 0 -216.5 -91t-110.5 -265z" />
<glyph unicode="f" horiz-adv-x="675" d="M55 958v121h189v162q0 137 78 207t231 70q37 0 82 -5v-118q-32 4 -72 4q-178 0 -178 -156v-164h238v-121h-238v-958h-141v958h-189z" />
<glyph unicode="g" horiz-adv-x="1155" d="M45 -143q0 82 52 145t147 100q-97 40 -97 138q0 92 132 161q-77 50 -120.5 130.5t-43.5 179.5q0 171 121 280t305 109q186 0 307 -111q48 36 117 63.5t133 34.5v-133q-116 0 -197 -36q64 -86 64 -207q0 -174 -120 -278.5t-304 -104.5q-95 0 -174 30q-86 -34 -86 -92 q0 -35 35.5 -54t123.5 -28l236 -18q381 -30 381 -275q0 -145 -137 -225t-363 -80q-256 0 -384 71.5t-128 199.5zM180 -125q0 -178 391 -178q164 0 259.5 49.5t95.5 132.5q0 77 -68.5 117.5t-226.5 52.5l-215 17l-56 6q-88 -28 -134 -80.5t-46 -116.5zM252 709 q0 -124 79.5 -198.5t211.5 -74.5t210 74t78 199q0 130 -76.5 204t-213.5 74q-133 0 -211 -75.5t-78 -202.5z" />
<glyph unicode="h" horiz-adv-x="1189" d="M164 0v1516h141v-607q195 191 412 191q158 0 239.5 -83.5t81.5 -236.5v-780h-141v754q0 114 -52.5 169.5t-162.5 55.5q-100 0 -190.5 -47.5t-186.5 -140.5v-791h-141z" />
<glyph unicode="i" horiz-adv-x="491" d="M172 1329v152h150v-152h-150zM176 0v1079h141v-1079h-141z" />
<glyph unicode="j" horiz-adv-x="491" d="M6 -291q32 -8 64 -8q106 0 106 121v1257h141v-1259q0 -115 -53.5 -173.5t-173.5 -58.5q-52 0 -84 9v112zM172 1329v152h150v-152h-150z" />
<glyph unicode="k" horiz-adv-x="1085" d="M164 0v1516h141v-1006l514 569h166l-352 -381l395 -698h-154l-335 590l-234 -250v-340h-141z" />
<glyph unicode="l" horiz-adv-x="491" d="M176 0v1516h141v-1516h-141z" />
<glyph unicode="m" horiz-adv-x="1869" d="M164 0v1079h141v-170q93 90 187.5 140.5t207.5 50.5q241 0 297 -195q208 195 408 195q160 0 235.5 -83.5t75.5 -236.5v-780h-141v754q0 117 -46 171t-157 54q-93 0 -177.5 -47t-182.5 -141v-791h-142v754q0 118 -46 171.5t-158 53.5q-92 0 -178 -47t-183 -141v-791h-141z " />
<glyph unicode="n" horiz-adv-x="1189" d="M164 0v1079h141v-170q195 191 412 191q158 0 239.5 -83.5t81.5 -236.5v-780h-141v754q0 114 -52.5 169.5t-162.5 55.5q-100 0 -190.5 -47.5t-186.5 -140.5v-791h-141z" />
<glyph unicode="o" horiz-adv-x="1181" d="M102 539q0 131 39 238.5t106.5 177.5t156 107.5t188.5 37.5t188 -37.5t154.5 -107.5t105.5 -177.5t39 -238.5t-39 -238.5t-105.5 -177.5t-154.5 -108t-188 -38t-188.5 38t-155.5 108t-106.5 177.5t-39.5 238.5zM244 541q0 -123 38 -221.5t118.5 -160t191.5 -61.5 q160 0 253 122.5t93 320.5q0 121 -38 218.5t-118 158.5t-190 61q-161 0 -254.5 -122t-93.5 -316z" />
<glyph unicode="p" horiz-adv-x="1214" d="M164 -410v1489h141v-153q163 174 361 174q94 0 174 -35t140.5 -102.5t95 -175.5t34.5 -246t-35 -246t-97 -175.5t-144.5 -102.5t-180.5 -35q-186 0 -348 165v-557h-141zM305 276q165 -176 336 -176q150 0 239 109.5t89 329.5q0 214 -92.5 327t-235.5 113q-94 0 -174 -45 t-162 -133v-525z" />
<glyph unicode="q" horiz-adv-x="1214" d="M104 539q0 272 127 416.5t330 144.5q184 0 348 -164v143h142v-1489h-142v568q-76 -82 -162 -129t-198 -47q-94 0 -174 34.5t-141 102t-95.5 175t-34.5 245.5zM246 537q0 -213 92 -324t235 -111q95 0 174.5 44.5t161.5 132.5v524q-164 178 -336 178q-149 0 -238 -112 t-89 -332z" />
<glyph unicode="r" horiz-adv-x="808" d="M164 0v1079h141v-213h4q148 234 428 234h25l-14 -131q-39 2 -43 2q-131 0 -233.5 -70t-166.5 -199v-702h-141z" />
<glyph unicode="s" horiz-adv-x="1036" d="M88 172l90 82q136 -156 336 -156q137 0 209 49t72 140q0 86 -66 131.5t-231 83.5q-201 49 -288 115.5t-87 199.5q0 120 98.5 201.5t267.5 81.5q241 0 400 -156l-80 -94q-133 133 -315 133q-118 0 -176 -46t-58 -114q0 -76 58 -116.5t204 -75.5q111 -27 179.5 -52t125 -64 t81 -93.5t24.5 -132.5q0 -145 -116.5 -227t-303.5 -82q-139 0 -249.5 52.5t-174.5 139.5z" />
<glyph unicode="t" horiz-adv-x="747" d="M49 958v121h189v387h141v-387h280v-121h-280v-677q0 -91 37 -134t133 -43q67 0 113 15v-121q-66 -12 -140 -12q-154 0 -219 62.5t-65 203.5v706h-189z" />
<glyph unicode="u" horiz-adv-x="1189" d="M154 299v780h141v-755q0 -115 52 -170.5t163 -55.5q97 0 187 48t188 141v792h143v-1079h-143v170q-197 -193 -410 -193q-159 0 -240 84t-81 238z" />
<glyph unicode="v" horiz-adv-x="1042" d="M53 1079h152l319 -911h4l318 911h143l-397 -1083h-141z" />
<glyph unicode="w" horiz-adv-x="1529" d="M55 1079h148l151 -534l101 -367h4q52 206 98 367l148 534h129l149 -544q32 -109 94 -357h4q54 202 99 352l157 549h138l-332 -1079h-131l-244 887h-4l-248 -887h-129z" />
<glyph unicode="x" horiz-adv-x="1046" d="M63 0l388 559l-361 520h158l280 -415l281 415h154l-363 -520l387 -559h-156l-309 453l-307 -453h-152z" />
<glyph unicode="y" horiz-adv-x="1079" d="M23 -391l32 117q66 -17 150 -17q86 0 136.5 39t84.5 127l45 119l-418 1085h152l336 -911h4l334 911h147l-465 -1204q-57 -154 -134.5 -221.5t-225.5 -67.5q-96 0 -178 23z" />
<glyph unicode="z" horiz-adv-x="1036" d="M84 0v90l657 871h-604v118h783v-92l-658 -870h686v-117h-864z" />
<glyph unicode="{" horiz-adv-x="778" d="M72 500v106q61 0 101 10.5t69.5 37t43 75t13.5 123.5v385q0 279 266 279h127v-109h-90q-160 0 -160 -158v-403q0 -74 -11 -124.5t-35 -83t-53.5 -50.5t-74.5 -33v-4q45 -15 74.5 -33t53.5 -50.5t35 -83t11 -124.5v-403q0 -158 160 -158h90v-109h-127q-266 0 -266 279v385 q0 75 -13.5 123.5t-43 75t-69.5 37t-101 10.5z" />
<glyph unicode="|" horiz-adv-x="706" d="M285 -410v1926h137v-1926h-137z" />
<glyph unicode="}" horiz-adv-x="778" d="M86 -301h90q160 0 160 158v409q0 74 11 123.5t35.5 81t53 48.5t74.5 32v4q-46 15 -74.5 32t-53 48.5t-35.5 81t-11 123.5v409q0 81 -35.5 122.5t-116.5 41.5h-90l-8 103h133q138 0 199 -68t61 -205v-391q0 -75 13.5 -123.5t43.5 -75t70 -37t101 -10.5v-106 q-61 0 -101 -10.5t-70 -37t-43.5 -75t-13.5 -123.5v-391q0 -137 -61 -205t-199 -68h-133v109z" />
<glyph unicode="~" horiz-adv-x="1032" d="M193 852q0 225 172 225q49 0 107 -28.5t110 -57t86 -28.5q45 0 64.5 25.5t19.5 84.5h90q0 -225 -174 -225q-49 0 -107 29t-109.5 57.5t-84.5 28.5q-46 0 -65 -25.5t-19 -85.5h-90z" />
<glyph unicode="&#xa1;" horiz-adv-x="641" d="M229 1325v191h179v-191h-179zM231 0l45 1102h84l48 -1102h-177z" />
<glyph unicode="&#xa2;" horiz-adv-x="1089" d="M102 539q0 139 41 249t110 176.5t153.5 101t177.5 34.5q41 0 59 -2l57 209h99l-64 -230q171 -61 262 -272l-116 -53q-67 166 -185 209l-229 -846q52 -19 108 -19q110 0 182 54.5t132 177.5l110 -49q-69 -146 -171.5 -224t-258.5 -78q-67 0 -131 21l-71 -262h-99l84 299 q-114 65 -182 196t-68 308zM240 541q0 -133 39.5 -231t109.5 -154l225 823q-10 2 -34 2q-50 0 -97 -14t-91.5 -47t-78 -82t-53.5 -125.5t-20 -171.5z" />
<glyph unicode="&#xa3;" horiz-adv-x="1247" d="M63 174q0 102 63.5 165.5t170.5 63.5q99 0 215 -86q8 49 8 127q0 137 -82 297h-260v113h199q-32 60 -49.5 98.5t-33 96t-15.5 112.5q0 171 105 277t286 106q81 0 147 -21.5t110.5 -57.5t75.5 -86t47 -103t21 -113l-137 -16q-8 126 -72 199t-194 73q-119 0 -183.5 -68 t-64.5 -188q0 -52 18.5 -111.5t34 -91t55.5 -106.5h353v-113h-295q65 -148 65 -286q0 -117 -33 -226q52 -45 83 -68t79.5 -45t93.5 -22q94 0 138 66t53 213h129q-14 -402 -311 -402q-86 0 -159 41.5t-157 116.5q-98 -158 -282 -158q-87 0 -154.5 54t-67.5 149zM174 178 q0 -50 33 -78t84 -28q134 0 188 135q-105 94 -184 94q-55 0 -88 -33.5t-33 -89.5z" />
<glyph unicode="&#xa4;" horiz-adv-x="1468" d="M43 543v116h248q-4 66 -4 107q0 16 1 45t1 43h-246v113h258q21 145 74.5 257.5t128.5 181t163.5 103.5t186.5 35q198 0 312 -112.5t169 -319.5l-133 -39q-20 70 -39 118.5t-47.5 94t-63.5 72t-85 42t-115 15.5q-156 0 -267 -113t-143 -335h465v-113h-477q-2 -27 -2 -80 q0 -45 4 -115h475v-116h-463q33 -218 139.5 -331.5t272.5 -113.5q150 0 235.5 90t133.5 273l133 -35q-57 -213 -182 -334t-322 -121q-215 0 -361.5 144.5t-189.5 427.5h-260z" />
<glyph unicode="&#xa5;" horiz-adv-x="1261" d="M53 1516h158l424 -717l420 717h153l-501 -834h391v-115h-396v-194h396v-115h-396v-258h-145v258h-391v115h391v194h-391v115h387z" />
<glyph unicode="&#xa6;" horiz-adv-x="706" d="M285 -410v838h137v-838h-137zM285 678v838h137v-838h-137z" />
<glyph unicode="&#xa7;" horiz-adv-x="1085" d="M111 598q0 59 23.5 113t63.5 96t83 72.5t92 54.5q-113 80 -155 146.5t-42 156.5q0 124 100.5 215.5t264.5 91.5q337 0 407 -299l-123 -39q-29 108 -95 164.5t-183 56.5t-174.5 -53t-57.5 -131q0 -73 55 -133.5t205 -148.5q79 -46 129.5 -78t100.5 -67.5t77.5 -64.5 t50 -63.5t31.5 -70.5t9 -80q0 -59 -22.5 -113.5t-61.5 -96.5t-82 -73t-92 -55q111 -78 148.5 -143t37.5 -158q0 -59 -24 -114t-67.5 -98.5t-112.5 -69.5t-152 -26q-330 0 -400 299l121 37q29 -109 93 -164t180 -55t169.5 52.5t53.5 131.5q0 75 -52 135.5t-200 147.5 q-96 56 -153 92.5t-110 78.5t-79.5 78t-41.5 79.5t-15 95.5zM244 612q0 -84 64 -144.5t280 -188.5q4 -2 13 -7.5t13 -7.5q228 99 228 258q0 84 -64.5 145t-279.5 189q-24 12 -29 14q-106 -47 -165.5 -113t-59.5 -145z" />
<glyph unicode="&#xa8;" horiz-adv-x="1036" d="M258 1194v168h158v-168h-158zM618 1194v168h158v-168h-158z" />
<glyph unicode="&#xa9;" horiz-adv-x="1767" d="M102 758q0 215 104 395.5t284.5 285.5t394.5 105t393.5 -105t283 -285.5t103.5 -395.5q0 -161 -61.5 -306.5t-165.5 -251t-249 -167.5t-306 -62t-305.5 62t-249 167.5t-165.5 251t-61 306.5zM193 758q0 -191 91.5 -352.5t251 -256t349.5 -94.5q142 0 270.5 55.5 t220 149.5t145.5 224t54 274q0 143 -54 272.5t-146.5 224t-221 150t-270.5 55.5q-190 0 -349 -94t-250 -255t-91 -353zM522 772q0 196 98.5 321.5t260.5 125.5q247 0 319 -275l-94 -24q-32 106 -83.5 156t-141.5 50q-117 0 -186.5 -96.5t-69.5 -255.5q0 -170 69 -266 t189 -96q178 0 233 217q84 -23 96 -25q-36 -137 -120 -211t-213 -74q-162 0 -259.5 124t-97.5 329z" />
<glyph unicode="&#xaa;" horiz-adv-x="849" d="M104 948q0 119 117.5 197.5t394.5 120.5v34q0 72 -37 110t-108 38q-85 0 -150 -29t-126 -88l-68 66q75 72 158 108.5t194 36.5q125 0 187.5 -63.5t62.5 -180.5v-337q0 -128 27 -189h-121q-17 55 -19 102q-137 -118 -290 -118q-104 0 -163 50.5t-59 141.5zM217 961 q0 -53 35 -82t96 -29q139 0 268 119v219q-117 -19 -197.5 -43t-123.5 -54t-60.5 -61t-17.5 -69z" />
<glyph unicode="&#xab;" horiz-adv-x="1069" d="M92 541l303 538h148l-297 -538l297 -541h-148zM498 541l305 538h145l-299 -538l299 -541h-145z" />
<glyph unicode="&#xac;" horiz-adv-x="1556" d="M20 678v156l386 -25l-15 225l-65 -4v125l59 -4l-4 59h127l-4 -65l223 -12l-27 383h156l-25 -383l224 12l-4 65h125l-5 -59l62 4v-125l-68 2l-12 -223l383 25v-156l-383 27l12 -222l68 4v-127l-62 5l5 -62h-125l4 68l-224 14l25 -385h-156l27 385l-223 -14l4 -68h-127 l4 62l-59 -5v127l65 -4l15 222zM487 705l13 -226l227 -12v238h-240zM487 809h240v242l-229 -13zM831 467l228 10l12 228h-240v-238zM831 809h240l-12 229l-228 13v-242z" />
<glyph unicode="&#xad;" horiz-adv-x="731" d="M135 582v123h461v-123h-461z" />
<glyph unicode="&#xae;" horiz-adv-x="1767" d="M102 758q0 215 104 395.5t284.5 285.5t394.5 105t393.5 -105t283 -285.5t103.5 -395.5q0 -161 -61.5 -306.5t-165.5 -251t-249 -167.5t-306 -62t-305.5 62t-249 167.5t-165.5 251t-61 306.5zM193 758q0 -191 91.5 -352.5t251 -256t349.5 -94.5q142 0 270.5 55.5 t220 149.5t145.5 224t54 274q0 143 -54 272.5t-146.5 224t-221 150t-270.5 55.5q-190 0 -349 -94t-250 -255t-91 -353zM600 340v864h295q148 0 226.5 -61t78.5 -176q0 -192 -196 -234l210 -393h-110l-205 379h-197v-379h-102zM702 805h189q103 0 156 37t53 121 q0 79 -53.5 114t-157.5 35h-187v-307z" />
<glyph unicode="&#xaf;" horiz-adv-x="1024" d="M221 1270v121h582v-121h-582z" />
<glyph unicode="&#xb0;" horiz-adv-x="825" d="M123 1257q0 124 82.5 205.5t206.5 81.5q125 0 207.5 -81.5t82.5 -205.5t-82.5 -205t-207.5 -81q-124 0 -206.5 81t-82.5 205zM227 1257q0 -86 52.5 -140t132.5 -54q82 0 134 54t52 140t-52 139.5t-134 53.5q-80 0 -132.5 -54t-52.5 -139z" />
<glyph unicode="&#xb1;" horiz-adv-x="1759" d="M55 958v121h189v162q0 136 77.5 206.5t225.5 70.5q38 0 78 -5v-118q-32 4 -70 4q-80 0 -125 -38.5t-45 -117.5v-164h459v158q0 136 78.5 208.5t224.5 72.5q38 0 78 -5v-118q-32 4 -68 4q-81 0 -126.5 -38.5t-45.5 -117.5v-164h229v-121h-229v-958h-141v958h-459v-958 h-141v958h-189zM1444 0v1513h141v-1513h-141z" />
<glyph unicode="&#xb2;" horiz-adv-x="913" d="M137 571v39q0 110 68.5 208t245.5 214q100 65 142 115.5t42 116.5q0 74 -44 117.5t-124 43.5q-71 0 -124 -39t-95 -126l-98 55q109 221 321 221q132 0 209.5 -74t77.5 -194q0 -97 -55.5 -171.5t-192.5 -158.5q-218 -137 -234 -254h486v-113h-625z" />
<glyph unicode="&#xb3;" horiz-adv-x="913" d="M115 750l90 65q94 -151 246 -151q95 0 147.5 47.5t52.5 124.5q0 95 -63.5 141.5t-208.5 46.5h-53v98h59q128 0 188 39.5t60 118.5q0 66 -43.5 105.5t-130.5 39.5q-124 0 -219 -118l-84 69q131 160 307 160q146 0 220.5 -71t74.5 -175q0 -78 -40.5 -133.5t-119.5 -81.5 q94 -29 137 -88t43 -151q0 -124 -88.5 -203.5t-236.5 -79.5q-105 0 -192.5 50.5t-145.5 146.5z" />
<glyph unicode="&#xb4;" horiz-adv-x="1024" d="M346 1194l195 319h186l-289 -319h-92z" />
<glyph unicode="&#xb6;" horiz-adv-x="1267" d="M127 1100q0 184 124 300t345 116h483v-1926h-121v1805h-213v-1805h-120v1100q-243 5 -370.5 108.5t-127.5 301.5z" />
<glyph unicode="&#xb7;" horiz-adv-x="550" d="M186 555v193h181v-193h-181z" />
<glyph unicode="&#xb8;" horiz-adv-x="1024" d="M260 -324l37 60q92 -62 201 -62q153 0 153 97q0 73 -86 73q-54 0 -106 -41l-60 27l54 170h86l-33 -111q50 31 112 31q61 0 102.5 -36.5t41.5 -102.5q0 -90 -69.5 -135t-178.5 -45q-139 0 -254 75z" />
<glyph unicode="&#xb9;" horiz-adv-x="827" d="M199 569v111h172v696q-70 -30 -170 -30v110q127 3 184 60h111v-836h153v-111h-450z" />
<glyph unicode="&#xba;" horiz-adv-x="878" d="M90 1149q0 185 100 289t248 104q150 0 250 -104t100 -289q0 -182 -100.5 -287.5t-249.5 -105.5q-147 0 -247.5 105.5t-100.5 287.5zM203 1149q0 -128 61 -214.5t174 -86.5q111 0 174.5 84.5t63.5 216.5q0 127 -62.5 214t-175.5 87q-108 0 -171.5 -85t-63.5 -216z" />
<glyph unicode="&#xbb;" horiz-adv-x="1069" d="M119 0l299 541l-299 538h147l305 -538l-305 -541h-147zM526 0l297 541l-297 538h146l305 -538l-305 -541h-146z" />
<glyph unicode="&#xbc;" horiz-adv-x="1914" d="M199 569v111h172v696q-70 -30 -170 -30v110q127 3 184 60h111v-836h153v-111h-450zM463 0l907 1516h133l-907 -1516h-133zM1073 227v82l424 639h137v-610h154v-111h-154v-227h-125v227h-436zM1221 338h290v440z" />
<glyph unicode="&#xbd;" horiz-adv-x="1994" d="M199 569v111h172v696q-70 -30 -170 -30v110q127 3 184 60h111v-836h153v-111h-450zM463 0l907 1516h133l-907 -1516h-133zM1217 0v41q0 110 68 208.5t245 211.5q100 64 141 114.5t41 118.5q0 73 -43.5 116.5t-124.5 43.5q-71 0 -123 -39.5t-96 -126.5l-98 55 q110 222 321 222q133 0 210 -73.5t77 -195.5q0 -97 -55.5 -171t-192.5 -158q-213 -134 -233 -254h487v-113h-624z" />
<glyph unicode="&#xbe;" horiz-adv-x="1970" d="M115 750l90 65q94 -151 246 -151q95 0 147.5 47.5t52.5 124.5q0 95 -63.5 141.5t-208.5 46.5h-53v98h59q128 0 188 39.5t60 118.5q0 66 -43.5 105.5t-130.5 39.5q-124 0 -219 -118l-84 69q131 160 307 160q146 0 220.5 -71t74.5 -175q0 -78 -40.5 -133.5t-119.5 -81.5 q94 -29 137 -88t43 -151q0 -124 -88.5 -203.5t-236.5 -79.5q-105 0 -192.5 50.5t-145.5 146.5zM520 0l905 1516h134l-908 -1516h-131zM1128 227v82l424 639h138v-610h153v-111h-153v-227h-125v227h-437zM1274 338h293v440z" />
<glyph unicode="&#xbf;" horiz-adv-x="1103" d="M106 340q0 73 19 131t58.5 103t81 76.5t104.5 68.5q44 26 73 47t50 47.5t32 50.5t17.5 63.5t8 76.5t1.5 100h115q6 -61 6 -135q0 -108 -42.5 -180t-142.5 -132q-71 -43 -108 -70t-70.5 -63.5t-46 -77.5t-12.5 -98q0 -116 81.5 -182t223.5 -66q122 0 209 53.5t158 153.5 l102 -78q-95 -124 -207 -191t-270 -67q-198 0 -319.5 102.5t-121.5 266.5zM520 1325v191h178v-191h-178z" />
<glyph unicode="&#xc0;" horiz-adv-x="1378" d="M74 0l536 1522h158l537 -1522h-152l-162 467h-614l-162 -467h-141zM358 1929h187l194 -319h-92zM422 596h524l-260 754h-4z" />
<glyph unicode="&#xc1;" horiz-adv-x="1378" d="M74 0l536 1522h158l537 -1522h-152l-162 467h-614l-162 -467h-141zM422 596h524l-260 754h-4zM641 1610l195 319h186l-289 -319h-92z" />
<glyph unicode="&#xc2;" horiz-adv-x="1378" d="M74 0l536 1522h158l537 -1522h-152l-162 467h-614l-162 -467h-141zM371 1604l264 325h106l265 -325h-91l-229 200l-229 -200h-86zM422 596h524l-260 754h-4z" />
<glyph unicode="&#xc3;" horiz-adv-x="1378" d="M74 0l536 1522h158l537 -1522h-152l-162 467h-614l-162 -467h-141zM367 1608q0 225 172 225q39 0 84 -18t79 -39.5t73 -39.5t67 -18q45 0 64.5 25.5t19.5 85.5h90q0 -225 -174 -225q-49 0 -107 28.5t-109.5 57t-84.5 28.5q-46 0 -65 -25t-19 -85h-90zM422 596h524 l-260 754h-4z" />
<glyph unicode="&#xc4;" horiz-adv-x="1378" d="M74 0l536 1522h158l537 -1522h-152l-162 467h-614l-162 -467h-141zM422 596h524l-260 754h-4zM428 1610v168h158v-168h-158zM788 1610v168h158v-168h-158z" />
<glyph unicode="&#xc5;" horiz-adv-x="1378" d="M74 0l522 1479q-45 23 -69.5 65t-24.5 96q0 80 52.5 133.5t133.5 53.5q79 0 132.5 -53.5t53.5 -133.5q0 -107 -92 -159l523 -1481h-152l-162 467h-614l-162 -467h-141zM422 596h524l-260 754h-4zM578 1640q0 -51 31 -82.5t79 -31.5t78.5 31.5t30.5 82.5q0 50 -31 82.5 t-78 32.5t-78.5 -33t-31.5 -82z" />
<glyph unicode="&#xc6;" horiz-adv-x="2039" d="M55 0l863 1516h985v-136h-760v-514h567v-131h-567v-602h803v-133h-949v485h-520l-274 -485h-148zM553 614h444v785h-2z" />
<glyph unicode="&#xc7;" horiz-adv-x="1431" d="M121 764q0 227 78 404t222 276.5t331 99.5q429 0 548 -463l-139 -34q-53 188 -148.5 279t-262.5 91q-219 0 -351.5 -178.5t-132.5 -470.5q0 -313 132.5 -492.5t355.5 -179.5q330 0 432 391l139 -30q-55 -225 -198 -352.5t-359 -133.5l-25 -82q50 31 111 31 q62 0 103.5 -36.5t41.5 -102.5q0 -90 -69 -135t-178 -45q-139 0 -254 75l37 60q92 -62 200 -62q152 0 152 97q0 73 -84 73q-57 0 -109 -41l-57 27l45 143q-257 28 -409 241.5t-152 549.5z" />
<glyph unicode="&#xc8;" horiz-adv-x="1236" d="M195 0v1516h905v-136h-760v-514h567v-131h-567v-602h803v-133h-948zM356 1929h187l194 -319h-92z" />
<glyph unicode="&#xc9;" horiz-adv-x="1236" d="M195 0v1516h905v-136h-760v-514h567v-131h-567v-602h803v-133h-948zM559 1610l195 319h186l-289 -319h-92z" />
<glyph unicode="&#xca;" horiz-adv-x="1236" d="M195 0v1516h905v-136h-760v-514h567v-131h-567v-602h803v-133h-948zM330 1604l264 325h106l265 -325h-91l-229 200l-229 -200h-86z" />
<glyph unicode="&#xcb;" horiz-adv-x="1236" d="M195 0v1516h905v-136h-760v-514h567v-131h-567v-602h803v-133h-948zM397 1610v168h158v-168h-158zM758 1610v168h157v-168h-157z" />
<glyph unicode="&#xcc;" horiz-adv-x="575" d="M-29 1929h187l194 -319h-92zM215 0v1516h145v-1516h-145z" />
<glyph unicode="&#xcd;" horiz-adv-x="575" d="M215 0v1516h145v-1516h-145zM246 1610l194 319h187l-289 -319h-92z" />
<glyph unicode="&#xce;" horiz-adv-x="575" d="M-29 1604l265 325h106l264 -325h-90l-229 200l-230 -200h-86zM215 0v1516h145v-1516h-145z" />
<glyph unicode="&#xcf;" horiz-adv-x="575" d="M29 1610v168h157v-168h-157zM215 0v1516h145v-1516h-145zM389 1610v168h158v-168h-158z" />
<glyph unicode="&#xd0;" horiz-adv-x="1452" d="M25 737v123h170v656h383q371 0 562 -191t191 -567q0 -372 -193 -565t-560 -193h-383v737h-170zM340 131h260q586 0 586 629q0 620 -590 620h-256v-520h328v-123h-328v-606z" />
<glyph unicode="&#xd1;" horiz-adv-x="1521" d="M195 0v1516h155l836 -1250h4v1250h137v-1516h-129l-862 1288h-4v-1288h-137zM457 1608q0 225 172 225q39 0 84 -18t79 -39.5t73 -39.5t67 -18q45 0 64.5 25.5t19.5 85.5h90q0 -225 -174 -225q-49 0 -107 28.5t-109.5 57t-84.5 28.5q-46 0 -65 -25t-19 -85h-90z" />
<glyph unicode="&#xd2;" d="M121 758q0 175 48 322.5t132.5 249t202.5 158t256 56.5t256 -56.5t202.5 -158t132.5 -249t48 -322.5q0 -234 -82 -413.5t-227.5 -276.5t-329.5 -97t-329.5 97t-227.5 276.5t-82 413.5zM266 758q0 -304 137.5 -480t356.5 -176t356 176t137 480q0 303 -136.5 478 t-356.5 175t-357 -175t-137 -478zM444 1929h187l194 -319h-92z" />
<glyph unicode="&#xd3;" d="M121 758q0 175 48 322.5t132.5 249t202.5 158t256 56.5t256 -56.5t202.5 -158t132.5 -249t48 -322.5q0 -234 -82 -413.5t-227.5 -276.5t-329.5 -97t-329.5 97t-227.5 276.5t-82 413.5zM266 758q0 -304 137.5 -480t356.5 -176t356 176t137 480q0 303 -136.5 478 t-356.5 175t-357 -175t-137 -478zM686 1610l195 319h186l-289 -319h-92z" />
<glyph unicode="&#xd4;" d="M121 758q0 175 48 322.5t132.5 249t202.5 158t256 56.5t256 -56.5t202.5 -158t132.5 -249t48 -322.5q0 -234 -82 -413.5t-227.5 -276.5t-329.5 -97t-329.5 97t-227.5 276.5t-82 413.5zM266 758q0 -304 137.5 -480t356.5 -176t356 176t137 480q0 303 -136.5 478 t-356.5 175t-357 -175t-137 -478zM440 1604l265 325h106l264 -325h-90l-229 200l-230 -200h-86z" />
<glyph unicode="&#xd5;" d="M121 758q0 175 48 322.5t132.5 249t202.5 158t256 56.5t256 -56.5t202.5 -158t132.5 -249t48 -322.5q0 -234 -82 -413.5t-227.5 -276.5t-329.5 -97t-329.5 97t-227.5 276.5t-82 413.5zM266 758q0 -304 137.5 -480t356.5 -176t356 176t137 480q0 303 -136.5 478 t-356.5 175t-357 -175t-137 -478zM434 1608q0 225 172 225q39 0 84 -18t79 -39.5t73 -39.5t67 -18q45 0 64.5 25.5t19.5 85.5h90q0 -225 -174 -225q-49 0 -107 28.5t-109.5 57t-84.5 28.5q-46 0 -65 -25t-19 -85h-90z" />
<glyph unicode="&#xd6;" d="M121 758q0 175 48 322.5t132.5 249t202.5 158t256 56.5t256 -56.5t202.5 -158t132.5 -249t48 -322.5q0 -234 -82 -413.5t-227.5 -276.5t-329.5 -97t-329.5 97t-227.5 276.5t-82 413.5zM266 758q0 -304 137.5 -480t356.5 -176t356 176t137 480q0 303 -136.5 478 t-356.5 175t-357 -175t-137 -478zM500 1610v168h157v-168h-157zM860 1610v168h158v-168h-158z" />
<glyph unicode="&#xd7;" horiz-adv-x="1302" d="M213 297l352 350l-352 354l84 84l352 -354l352 354l86 -84l-354 -352l354 -352l-83 -84l-355 352l-352 -354z" />
<glyph unicode="&#xd8;" d="M121 758q0 175 48 322.5t132.5 249t202.5 158t256 56.5q237 0 409 -164l134 172l86 -61l-148 -191q158 -213 158 -542q0 -234 -82 -413.5t-227.5 -276.5t-329.5 -97q-238 0 -410 164l-133 -172l-86 62l145 190q-155 214 -155 543zM264 758q0 -260 107 -432l719 944 q-136 145 -330 145q-220 0 -358 -176t-138 -481zM430 246q130 -146 330 -146q219 0 356 176.5t137 481.5q0 262 -102 430z" />
<glyph unicode="&#xd9;" horiz-adv-x="1464" d="M180 512v1004h146v-979q0 -95 24 -172.5t72.5 -136.5t127.5 -91.5t183 -32.5q203 0 304.5 115.5t101.5 312.5v984h145v-1000q0 -114 -35 -212t-102.5 -172t-174 -116.5t-241.5 -42.5q-136 0 -242.5 41.5t-173.5 115.5t-101 170.5t-34 211.5zM430 1929h186l195 -319h-92z " />
<glyph unicode="&#xda;" horiz-adv-x="1464" d="M180 512v1004h146v-979q0 -95 24 -172.5t72.5 -136.5t127.5 -91.5t183 -32.5q203 0 304.5 115.5t101.5 312.5v984h145v-1000q0 -114 -35 -212t-102.5 -172t-174 -116.5t-241.5 -42.5q-136 0 -242.5 41.5t-173.5 115.5t-101 170.5t-34 211.5zM641 1610l195 319h186 l-289 -319h-92z" />
<glyph unicode="&#xdb;" horiz-adv-x="1464" d="M180 512v1004h146v-979q0 -95 24 -172.5t72.5 -136.5t127.5 -91.5t183 -32.5q203 0 304.5 115.5t101.5 312.5v984h145v-1000q0 -114 -35 -212t-102.5 -172t-174 -116.5t-241.5 -42.5q-136 0 -242.5 41.5t-173.5 115.5t-101 170.5t-34 211.5zM414 1604l264 325h106 l265 -325h-91l-229 200l-229 -200h-86z" />
<glyph unicode="&#xdc;" horiz-adv-x="1464" d="M180 512v1004h146v-979q0 -95 24 -172.5t72.5 -136.5t127.5 -91.5t183 -32.5q203 0 304.5 115.5t101.5 312.5v984h145v-1000q0 -114 -35 -212t-102.5 -172t-174 -116.5t-241.5 -42.5q-136 0 -242.5 41.5t-173.5 115.5t-101 170.5t-34 211.5zM471 1610v168h158v-168h-158z M831 1610v168h158v-168h-158z" />
<glyph unicode="&#xdd;" horiz-adv-x="1265" d="M51 1516h158l426 -723l424 723h155l-509 -848v-668h-146v668zM469 1628l195 320h186l-289 -320h-92z" />
<glyph unicode="&#xde;" horiz-adv-x="1325" d="M195 0v1516h145v-287h356q253 -2 393 -106.5t140 -309.5q0 -219 -147.5 -325.5t-399.5 -106.5h-342v-381h-145zM340 512h350q196 0 293.5 69t97.5 228q0 150 -98 217.5t-295 67.5h-348v-582z" />
<glyph unicode="&#xdf;" horiz-adv-x="1255" d="M164 0v1057q0 218 116.5 338.5t321.5 120.5q190 0 303 -93t113 -258q0 -116 -69 -198.5t-193 -116.5q84 -12 153 -41.5t125.5 -79t87.5 -127t31 -176.5q0 -205 -106.5 -327t-290.5 -122q-200 0 -310 119l84 88q93 -90 228 -90q117 0 188.5 88t71.5 238 q0 186 -121.5 271.5t-361.5 94.5v109q175 3 261.5 75t86.5 189q0 113 -76.5 174.5t-208.5 61.5q-142 0 -217.5 -84t-75.5 -246v-1065h-141z" />
<glyph unicode="&#xe0;" horiz-adv-x="1120" d="M98 252q0 83 37.5 149.5t121.5 125t227 103t345 75.5v55q0 221 -219 221q-119 0 -213.5 -44t-189.5 -126l-76 88q105 97 223 149t269 52q346 0 346 -344v-490q0 -194 30 -266h-145q-25 80 -25 154q-190 -172 -426 -172q-144 0 -224.5 71.5t-80.5 198.5zM238 270 q0 -84 52 -128t144 -44q217 0 395 170v336q-169 -29 -286.5 -65t-183 -79t-93.5 -88.5t-28 -101.5zM283 1513h186l195 -319h-93z" />
<glyph unicode="&#xe1;" horiz-adv-x="1120" d="M98 252q0 83 37.5 149.5t121.5 125t227 103t345 75.5v55q0 221 -219 221q-119 0 -213.5 -44t-189.5 -126l-76 88q105 97 223 149t269 52q346 0 346 -344v-490q0 -194 30 -266h-145q-25 80 -25 154q-190 -172 -426 -172q-144 0 -224.5 71.5t-80.5 198.5zM238 270 q0 -84 52 -128t144 -44q217 0 395 170v336q-169 -29 -286.5 -65t-183 -79t-93.5 -88.5t-28 -101.5zM500 1194l194 319h187l-289 -319h-92z" />
<glyph unicode="&#xe2;" horiz-adv-x="1120" d="M98 252q0 83 37.5 149.5t121.5 125t227 103t345 75.5v55q0 221 -219 221q-119 0 -213.5 -44t-189.5 -126l-76 88q105 97 223 149t269 52q346 0 346 -344v-490q0 -194 30 -266h-145q-25 80 -25 154q-190 -172 -426 -172q-144 0 -224.5 71.5t-80.5 198.5zM238 270 q0 -84 52 -128t144 -44q217 0 395 170v336q-169 -29 -286.5 -65t-183 -79t-93.5 -88.5t-28 -101.5zM258 1188l264 325h107l264 -325h-90l-230 201l-229 -201h-86z" />
<glyph unicode="&#xe3;" horiz-adv-x="1120" d="M98 252q0 83 37.5 149.5t121.5 125t227 103t345 75.5v55q0 221 -219 221q-119 0 -213.5 -44t-189.5 -126l-76 88q105 97 223 149t269 52q346 0 346 -344v-490q0 -194 30 -266h-145q-25 80 -25 154q-190 -172 -426 -172q-144 0 -224.5 71.5t-80.5 198.5zM238 270 q0 -84 52 -128t144 -44q217 0 395 170v336q-169 -29 -286.5 -65t-183 -79t-93.5 -88.5t-28 -101.5zM246 1192q0 225 172 225q49 0 107 -28.5t110 -57t86 -28.5q45 0 64.5 25.5t19.5 84.5h90q0 -225 -174 -225q-49 0 -107 29t-109.5 57.5t-84.5 28.5q-46 0 -65 -25.5 t-19 -85.5h-90z" />
<glyph unicode="&#xe4;" horiz-adv-x="1120" d="M98 252q0 83 37.5 149.5t121.5 125t227 103t345 75.5v55q0 221 -219 221q-119 0 -213.5 -44t-189.5 -126l-76 88q105 97 223 149t269 52q346 0 346 -344v-490q0 -194 30 -266h-145q-25 80 -25 154q-190 -172 -426 -172q-144 0 -224.5 71.5t-80.5 198.5zM238 270 q0 -84 52 -128t144 -44q217 0 395 170v336q-169 -29 -286.5 -65t-183 -79t-93.5 -88.5t-28 -101.5zM328 1194v168h157v-168h-157zM688 1194v168h158v-168h-158z" />
<glyph unicode="&#xe5;" horiz-adv-x="1120" d="M98 252q0 83 37.5 149.5t121.5 125t227 103t345 75.5v55q0 221 -219 221q-119 0 -213.5 -44t-189.5 -126l-76 88q105 97 223 149t269 52q346 0 346 -344v-490q0 -194 30 -266h-145q-25 80 -25 154q-190 -172 -426 -172q-144 0 -224.5 71.5t-80.5 198.5zM238 270 q0 -84 52 -128t144 -44q217 0 395 170v336q-169 -29 -286.5 -65t-183 -79t-93.5 -88.5t-28 -101.5zM403 1366q0 80 53 133t134 53t133.5 -53t52.5 -133t-52.5 -133t-133.5 -53t-134 53t-53 133zM481 1366q0 -51 30.5 -83t78.5 -32q47 0 77.5 32t30.5 83q0 50 -30.5 82.5 t-77.5 32.5t-78 -32.5t-31 -82.5z" />
<glyph unicode="&#xe6;" horiz-adv-x="1830" d="M98 248q0 83 37 150t120 126t225.5 104.5t344.5 76.5v55q0 221 -215 221q-120 0 -214 -43.5t-189 -126.5l-76 88q105 97 223 149t267 52q258 0 307 -221q53 99 148.5 160t211.5 61q196 0 318.5 -146.5t122.5 -414.5v-23h-771q1 -196 97.5 -308t242.5 -112q115 0 191 48 t141 149l90 -70q-76 -120 -180 -183t-252 -63q-123 0 -226.5 60t-166.5 174q-112 -114 -231.5 -174t-260.5 -60q-144 0 -224.5 71.5t-80.5 199.5zM238 264q0 -82 51.5 -126t144.5 -44q226 0 424 207q-35 96 -35 223q0 17 1 44t1 36q-168 -29 -285 -65.5t-182 -80.5 t-92.5 -90.5t-27.5 -103.5zM961 625h628q-11 162 -87.5 259t-215.5 97q-123 0 -214.5 -91t-110.5 -265z" />
<glyph unicode="&#xe7;" horiz-adv-x="1087" d="M102 539q0 140 41 250t110 176.5t153.5 100.5t177.5 34q83 0 151.5 -23t117 -66t82.5 -92.5t62 -113.5l-120 -53q-48 118 -117.5 175.5t-179.5 57.5q-63 0 -120.5 -24.5t-107 -75t-79 -139.5t-29.5 -205q0 -208 93 -329.5t238 -121.5q109 0 180 57t130 181l114 -49 q-33 -70 -71 -122t-87.5 -92.5t-113.5 -62t-141 -22.5l-27 -91q50 31 111 31q62 0 103.5 -36.5t41.5 -102.5q0 -90 -69.5 -135t-178.5 -45q-139 0 -254 75l37 60q92 -62 201 -62q151 0 151 97q0 73 -84 73q-56 0 -108 -41l-57 27l47 154q-172 26 -285 173.5t-113 381.5z" />
<glyph unicode="&#xe8;" horiz-adv-x="1118" d="M102 541q0 138 41.5 248t110.5 176t151 100.5t170 34.5q196 0 318.5 -146.5t122.5 -414.5v-27h-772q1 -193 98 -304.5t242 -111.5q116 0 193.5 48t142.5 149l88 -70q-152 -246 -433 -246q-96 0 -180.5 37t-150 106t-104 178t-38.5 243zM246 625h633q-11 161 -89 258.5 t-217 97.5q-125 0 -216.5 -91t-110.5 -265zM252 1513h186l195 -319h-92z" />
<glyph unicode="&#xe9;" horiz-adv-x="1118" d="M102 541q0 138 41.5 248t110.5 176t151 100.5t170 34.5q196 0 318.5 -146.5t122.5 -414.5v-27h-772q1 -193 98 -304.5t242 -111.5q116 0 193.5 48t142.5 149l88 -70q-152 -246 -433 -246q-96 0 -180.5 37t-150 106t-104 178t-38.5 243zM246 625h633q-11 161 -89 258.5 t-217 97.5q-125 0 -216.5 -91t-110.5 -265zM502 1194l194 319h187l-289 -319h-92z" />
<glyph unicode="&#xea;" horiz-adv-x="1118" d="M102 541q0 138 41.5 248t110.5 176t151 100.5t170 34.5q196 0 318.5 -146.5t122.5 -414.5v-27h-772q1 -193 98 -304.5t242 -111.5q116 0 193.5 48t142.5 149l88 -70q-152 -246 -433 -246q-96 0 -180.5 37t-150 106t-104 178t-38.5 243zM246 625h633q-11 161 -89 258.5 t-217 97.5q-125 0 -216.5 -91t-110.5 -265zM258 1188l264 325h107l264 -325h-90l-230 201l-229 -201h-86z" />
<glyph unicode="&#xeb;" horiz-adv-x="1118" d="M102 541q0 138 41.5 248t110.5 176t151 100.5t170 34.5q196 0 318.5 -146.5t122.5 -414.5v-27h-772q1 -193 98 -304.5t242 -111.5q116 0 193.5 48t142.5 149l88 -70q-152 -246 -433 -246q-96 0 -180.5 37t-150 106t-104 178t-38.5 243zM246 625h633q-11 161 -89 258.5 t-217 97.5q-125 0 -216.5 -91t-110.5 -265zM307 1194v168h158v-168h-158zM668 1194v168h157v-168h-157z" />
<glyph unicode="&#xec;" horiz-adv-x="491" d="M-68 1513h187l194 -319h-92zM176 0v1079h141v-1079h-141z" />
<glyph unicode="&#xed;" horiz-adv-x="491" d="M176 0v1079h141v-1079h-141zM211 1194l195 319h186l-289 -319h-92z" />
<glyph unicode="&#xee;" horiz-adv-x="491" d="M-72 1188l265 325h106l264 -325h-90l-229 201l-230 -201h-86zM176 0v1079h141v-1079h-141z" />
<glyph unicode="&#xef;" horiz-adv-x="491" d="M-14 1194v168h157v-168h-157zM176 0v1079h141v-1079h-141zM346 1194v168h158v-168h-158z" />
<glyph unicode="&#xf0;" horiz-adv-x="1181" d="M102 528q0 250 134 392.5t339 142.5q101 0 193.5 -52t149.5 -137q-55 217 -189 363l-223 -84l-43 98l188 70q-64 59 -157 117l69 92q118 -67 211 -154l205 78l43 -98l-170 -66q227 -278 227 -753q0 -253 -138.5 -406.5t-348.5 -153.5q-138 0 -249 66t-176 192.5 t-65 292.5zM244 530q0 -121 39 -218t119 -156.5t190 -59.5q158 0 252 120t94 314q0 183 -93.5 299.5t-252.5 116.5q-160 0 -254 -113t-94 -303z" />
<glyph unicode="&#xf1;" horiz-adv-x="1189" d="M164 0v1079h141v-170q195 191 412 191q158 0 239.5 -83.5t81.5 -236.5v-780h-141v754q0 114 -52.5 169.5t-162.5 55.5q-100 0 -190.5 -47.5t-186.5 -140.5v-791h-141zM287 1192q0 225 172 225q49 0 107 -28.5t110 -57t86 -28.5q45 0 64.5 25.5t19.5 84.5h90 q0 -225 -174 -225q-49 0 -107 29t-109.5 57.5t-84.5 28.5q-46 0 -65 -25.5t-19 -85.5h-90z" />
<glyph unicode="&#xf2;" horiz-adv-x="1181" d="M102 539q0 131 39 238.5t106.5 177.5t156 107.5t188.5 37.5t188 -37.5t154.5 -107.5t105.5 -177.5t39 -238.5t-39 -238.5t-105.5 -177.5t-154.5 -108t-188 -38t-188.5 38t-155.5 108t-106.5 177.5t-39.5 238.5zM244 541q0 -123 38 -221.5t118.5 -160t191.5 -61.5 q160 0 253 122.5t93 320.5q0 121 -38 218.5t-118 158.5t-190 61q-161 0 -254.5 -122t-93.5 -316zM276 1513h187l194 -319h-92z" />
<glyph unicode="&#xf3;" horiz-adv-x="1181" d="M102 539q0 131 39 238.5t106.5 177.5t156 107.5t188.5 37.5t188 -37.5t154.5 -107.5t105.5 -177.5t39 -238.5t-39 -238.5t-105.5 -177.5t-154.5 -108t-188 -38t-188.5 38t-155.5 108t-106.5 177.5t-39.5 238.5zM244 541q0 -123 38 -221.5t118.5 -160t191.5 -61.5 q160 0 253 122.5t93 320.5q0 121 -38 218.5t-118 158.5t-190 61q-161 0 -254.5 -122t-93.5 -316zM520 1194l195 319h186l-289 -319h-92z" />
<glyph unicode="&#xf4;" horiz-adv-x="1181" d="M102 539q0 131 39 238.5t106.5 177.5t156 107.5t188.5 37.5t188 -37.5t154.5 -107.5t105.5 -177.5t39 -238.5t-39 -238.5t-105.5 -177.5t-154.5 -108t-188 -38t-188.5 38t-155.5 108t-106.5 177.5t-39.5 238.5zM244 541q0 -123 38 -221.5t118.5 -160t191.5 -61.5 q160 0 253 122.5t93 320.5q0 121 -38 218.5t-118 158.5t-190 61q-161 0 -254.5 -122t-93.5 -316zM274 1188l265 325h106l264 -325h-90l-229 201l-230 -201h-86z" />
<glyph unicode="&#xf5;" horiz-adv-x="1181" d="M102 539q0 131 39 238.5t106.5 177.5t156 107.5t188.5 37.5t188 -37.5t154.5 -107.5t105.5 -177.5t39 -238.5t-39 -238.5t-105.5 -177.5t-154.5 -108t-188 -38t-188.5 38t-155.5 108t-106.5 177.5t-39.5 238.5zM244 541q0 -123 38 -221.5t118.5 -160t191.5 -61.5 q160 0 253 122.5t93 320.5q0 121 -38 218.5t-118 158.5t-190 61q-161 0 -254.5 -122t-93.5 -316zM270 1192q0 225 172 225q49 0 107 -28.5t110 -57t86 -28.5q45 0 64.5 25.5t19.5 84.5h91q0 -225 -175 -225q-49 0 -107 29t-109.5 57.5t-84.5 28.5q-46 0 -65 -25.5t-19 -85.5 h-90z" />
<glyph unicode="&#xf6;" horiz-adv-x="1181" d="M102 539q0 131 39 238.5t106.5 177.5t156 107.5t188.5 37.5t188 -37.5t154.5 -107.5t105.5 -177.5t39 -238.5t-39 -238.5t-105.5 -177.5t-154.5 -108t-188 -38t-188.5 38t-155.5 108t-106.5 177.5t-39.5 238.5zM244 541q0 -123 38 -221.5t118.5 -160t191.5 -61.5 q160 0 253 122.5t93 320.5q0 121 -38 218.5t-118 158.5t-190 61q-161 0 -254.5 -122t-93.5 -316zM330 1194v168h157v-168h-157zM690 1194v168h158v-168h-158z" />
<glyph unicode="&#xf7;" horiz-adv-x="1302" d="M135 612v123h1034v-123h-1034zM561 221v176h172v-176h-172zM561 948v176h172v-176h-172z" />
<glyph unicode="&#xf8;" horiz-adv-x="1181" d="M102 539q0 131 39 238.5t106.5 177.5t156 107.5t188.5 37.5q161 0 285 -92l102 139l80 -64l-109 -143q129 -155 129 -401q0 -131 -39 -238.5t-105.5 -177.5t-154.5 -108t-188 -38q-159 0 -285 93l-104 -138l-76 60l109 145q-134 153 -134 402zM242 541q0 -178 80 -299 l481 663q-85 76 -211 76q-161 0 -255.5 -123t-94.5 -317zM381 172q84 -78 211 -78q160 0 254 124.5t94 322.5q0 171 -78 290z" />
<glyph unicode="&#xf9;" horiz-adv-x="1189" d="M154 299v780h141v-755q0 -115 52 -170.5t163 -55.5q97 0 187 48t188 141v792h143v-1079h-143v170q-197 -193 -410 -193q-159 0 -240 84t-81 238zM285 1513h186l195 -319h-93z" />
<glyph unicode="&#xfa;" horiz-adv-x="1189" d="M154 299v780h141v-755q0 -115 52 -170.5t163 -55.5q97 0 187 48t188 141v792h143v-1079h-143v170q-197 -193 -410 -193q-159 0 -240 84t-81 238zM518 1194l195 319h186l-289 -319h-92z" />
<glyph unicode="&#xfb;" horiz-adv-x="1189" d="M154 299v780h141v-755q0 -115 52 -170.5t163 -55.5q97 0 187 48t188 141v792h143v-1079h-143v170q-197 -193 -410 -193q-159 0 -240 84t-81 238zM272 1188l265 325h106l264 -325h-90l-229 201l-230 -201h-86z" />
<glyph unicode="&#xfc;" horiz-adv-x="1189" d="M154 299v780h141v-755q0 -115 52 -170.5t163 -55.5q97 0 187 48t188 141v792h143v-1079h-143v170q-197 -193 -410 -193q-159 0 -240 84t-81 238zM334 1194v168h158v-168h-158zM694 1194v168h158v-168h-158z" />
<glyph unicode="&#xfd;" horiz-adv-x="1079" d="M23 -391l32 117q66 -17 150 -17q86 0 136.5 39t84.5 127l45 119l-418 1085h152l336 -911h4l334 911h147l-465 -1204q-57 -154 -134.5 -221.5t-225.5 -67.5q-96 0 -178 23zM375 1194l194 319h187l-289 -319h-92z" />
<glyph unicode="&#xfe;" horiz-adv-x="1214" d="M164 -410v1926h141v-590q163 174 361 174q94 0 174 -35t140.5 -102.5t95 -175.5t34.5 -246t-35 -246t-97 -175.5t-144.5 -102.5t-180.5 -35q-186 0 -348 165v-557h-141zM305 276q165 -176 336 -176q150 0 239 109.5t89 329.5q0 214 -92.5 327t-235.5 113q-94 0 -174 -45 t-162 -133v-525z" />
<glyph unicode="&#xff;" horiz-adv-x="1079" d="M23 -391l32 117q66 -17 150 -17q86 0 136.5 39t84.5 127l45 119l-418 1085h152l336 -911h4l334 911h147l-465 -1204q-57 -154 -134.5 -221.5t-225.5 -67.5q-96 0 -178 23zM283 1194v168h157v-168h-157zM643 1194v168h158v-168h-158z" />
<glyph unicode="&#x152;" horiz-adv-x="2291" d="M121 758q0 175 48.5 322.5t133.5 249t202.5 158t254.5 56.5q172 0 300 -85.5t200 -233.5v291h894v-136h-759v-514h567v-131h-567v-602h803v-133h-938v295q-72 -149 -200.5 -236.5t-299.5 -87.5q-137 0 -254.5 56.5t-202.5 158t-133.5 249.5t-48.5 323zM266 758 q0 -304 137.5 -480t356.5 -176q218 0 354.5 176t136.5 480q0 303 -136.5 478t-354.5 175q-220 0 -357 -175t-137 -478z" />
<glyph unicode="&#x153;" horiz-adv-x="1937" d="M102 539q0 132 38.5 239t105 177t154.5 107.5t188 37.5q143 0 250.5 -77.5t160.5 -207.5q50 127 158.5 206t241.5 79q194 0 315 -146.5t121 -414.5v-23h-768q3 -197 98 -308.5t240 -111.5q116 0 191.5 48t140.5 149l90 -70q-76 -120 -179.5 -183t-250.5 -63 q-132 0 -242 78.5t-158 204.5q-54 -129 -160.5 -206t-248.5 -77q-99 0 -187 38t-155 108t-105.5 177.5t-38.5 238.5zM244 541q0 -123 37 -221.5t116.5 -160t190.5 -61.5q160 0 252 122t92 321q0 121 -37.5 218.5t-117 158.5t-189.5 61q-160 0 -252 -121.5t-92 -316.5z M1071 625h625q-11 162 -86.5 259t-214.5 97q-125 0 -215.5 -91t-108.5 -265z" />
<glyph unicode="&#x178;" horiz-adv-x="1265" d="M51 1516h158l426 -723l424 723h155l-509 -848v-668h-146v668zM373 1610v168h157v-168h-157zM733 1610v168h158v-168h-158z" />
<glyph unicode="&#x2c6;" horiz-adv-x="1044" d="M205 1188l264 325h106l265 -325h-90l-230 201l-229 -201h-86z" />
<glyph unicode="&#x2dc;" horiz-adv-x="1032" d="M193 1192q0 225 172 225q49 0 107 -28.5t110 -57t86 -28.5q45 0 64.5 25.5t19.5 84.5h90q0 -225 -174 -225q-49 0 -107 29t-109.5 57.5t-84.5 28.5q-46 0 -65 -25.5t-19 -85.5h-90z" />
<glyph unicode="&#x2000;" horiz-adv-x="974" />
<glyph unicode="&#x2001;" horiz-adv-x="1948" />
<glyph unicode="&#x2002;" horiz-adv-x="974" />
<glyph unicode="&#x2003;" horiz-adv-x="1948" />
<glyph unicode="&#x2004;" horiz-adv-x="649" />
<glyph unicode="&#x2005;" horiz-adv-x="487" />
<glyph unicode="&#x2006;" horiz-adv-x="324" />
<glyph unicode="&#x2007;" horiz-adv-x="324" />
<glyph unicode="&#x2008;" horiz-adv-x="243" />
<glyph unicode="&#x2009;" horiz-adv-x="389" />
<glyph unicode="&#x200a;" horiz-adv-x="108" />
<glyph unicode="&#x2010;" horiz-adv-x="731" d="M135 582v123h461v-123h-461z" />
<glyph unicode="&#x2011;" horiz-adv-x="731" d="M135 582v123h461v-123h-461z" />
<glyph unicode="&#x2012;" horiz-adv-x="731" d="M135 582v123h461v-123h-461z" />
<glyph unicode="&#x2013;" horiz-adv-x="1316" d="M137 578v129h1043v-129h-1043z" />
<glyph unicode="&#x2014;" horiz-adv-x="1892" d="M137 578v129h1618v-129h-1618z" />
<glyph unicode="&#x2018;" horiz-adv-x="548" d="M186 1116v176l95 224h65l-49 -207h65v-193h-176z" />
<glyph unicode="&#x2019;" horiz-adv-x="548" d="M186 1323v193h176v-179l-94 -221h-65l49 207h-66z" />
<glyph unicode="&#x201a;" horiz-adv-x="548" d="M186 0v193h176v-179l-94 -221h-65l49 207h-66z" />
<glyph unicode="&#x201c;" horiz-adv-x="927" d="M186 1116v176l95 224h65l-49 -207h65v-193h-176zM565 1116v176l94 224h66l-49 -207h63v-193h-174z" />
<glyph unicode="&#x201d;" horiz-adv-x="927" d="M186 1323v193h176v-179l-94 -221h-65l49 207h-66zM565 1323v193h174v-179l-94 -221h-65l51 207h-66z" />
<glyph unicode="&#x201e;" horiz-adv-x="927" d="M186 0v193h176v-179l-94 -221h-65l49 207h-66zM565 0v193h174v-179l-94 -221h-65l51 207h-66z" />
<glyph unicode="&#x2022;" horiz-adv-x="948" d="M233 717q0 105 67.5 173t172.5 68q106 0 174 -67.5t68 -173.5q0 -104 -68 -172t-174 -68q-104 0 -172 68t-68 172z" />
<glyph unicode="&#x2026;" horiz-adv-x="1646" d="M186 0v193h176v-193h-176zM735 0v193h178v-193h-178zM1284 0v193h178v-193h-178z" />
<glyph unicode="&#x202f;" horiz-adv-x="389" />
<glyph unicode="&#x2039;" horiz-adv-x="663" d="M92 541l303 538h148l-297 -538l297 -541h-148z" />
<glyph unicode="&#x203a;" horiz-adv-x="663" d="M119 0l299 541l-299 538h147l305 -538l-305 -541h-147z" />
<glyph unicode="&#x205f;" horiz-adv-x="487" />
<glyph unicode="&#x20ac;" horiz-adv-x="1468" d="M43 543v116h248q-4 66 -4 107q0 16 1 45t1 43h-246v113h258q21 145 74.5 257.5t128.5 181t163.5 103.5t186.5 35q198 0 312 -112.5t169 -319.5l-133 -39q-20 70 -39 118.5t-47.5 94t-63.5 72t-85 42t-115 15.5q-156 0 -267 -113t-143 -335h465v-113h-477q-2 -27 -2 -80 q0 -45 4 -115h475v-116h-463q33 -218 139.5 -331.5t272.5 -113.5q150 0 235.5 90t133.5 273l133 -35q-57 -213 -182 -334t-322 -121q-215 0 -361.5 144.5t-189.5 427.5h-260z" />
<glyph unicode="&#x2122;" horiz-adv-x="1794" d="M61 1419v97h648v-97h-269v-770h-108v770h-271zM862 649v867h142l260 -723l264 723h143v-867h-110v680l-252 -680h-92l-252 680v-680h-103z" />
<glyph unicode="&#xe000;" horiz-adv-x="1075" d="M0 0v1075h1075v-1075h-1075z" />
<glyph unicode="&#xfb01;" horiz-adv-x="1175" d="M55 958v121h189v162q0 136 77.5 206.5t225.5 70.5q38 0 78 -5v-118q-32 4 -70 4q-80 0 -125 -38.5t-45 -117.5v-164h229v-121h-229v-958h-141v958h-189zM840 1327v154h149v-154h-149zM844 0v1079h141v-1079h-141z" />
<glyph unicode="&#xfb02;" horiz-adv-x="1175" d="M55 958v121h189v162q0 136 77.5 206.5t225.5 70.5q38 0 78 -5v-118q-32 4 -70 4q-80 0 -125 -38.5t-45 -117.5v-164h229v-121h-229v-958h-141v958h-189zM844 0v1516h141v-1516h-141z" />
</font>
</defs>
</svg>
